<?xml version="1.0" standalone="no"?>
<!DOCTYPE svg PUBLIC "-//W3C//DTD SVG 1.1//EN" "http://www.w3.org/Graphics/SVG/1.1/DTD/svg11.dtd" >
<!--
2013-9-30: Created.
-->
<svg>
<metadata>
Created by iconfont
</metadata>
<defs>

<font id="iconfont" horiz-adv-x="1024" >
  <font-face
    font-family="iconfont"
    font-weight="500"
    font-stretch="normal"
    units-per-em="1024"
    ascent="896"
    descent="-128"
  />
    <missing-glyph />
    
    <glyph glyph-name="x" unicode="x" horiz-adv-x="1001"
d="M281 543q-27 -1 -53 -1h-83q-18 0 -36.5 -6t-32.5 -18.5t-23 -32t-9 -45.5v-76h912v41q0 16 -0.5 30t-0.5 18q0 13 -5 29t-17 29.5t-31.5 22.5t-49.5 9h-133v-97h-438v97zM955 310v-52q0 -23 0.5 -52t0.5 -58t-10.5 -47.5t-26 -30t-33 -16t-31.5 -4.5q-14 -1 -29.5 -0.5
t-29.5 0.5h-32l-45 128h-439l-44 -128h-29h-34q-20 0 -45 1q-25 0 -41 9.5t-25.5 23t-13.5 29.5t-4 30v167h911zM163 247q-12 0 -21 -8.5t-9 -21.5t9 -21.5t21 -8.5q13 0 22 8.5t9 21.5t-9 21.5t-22 8.5zM316 123q-8 -26 -14 -48q-5 -19 -10.5 -37t-7.5 -25t-3 -15t1 -14.5
t9.5 -10.5t21.5 -4h37h67h81h80h64h36q23 0 34 12t2 38q-5 13 -9.5 30.5t-9.5 34.5q-5 19 -11 39h-368zM336 498v228q0 11 2.5 23t10 21.5t20.5 15.5t34 6h188q31 0 51.5 -14.5t20.5 -52.5v-227h-327z" />
    

    
    <glyph glyph-name="guanliyuan" unicode="&#58882;" d="M878.592 114.688q4.096-14.336 7.168-36.352t3.072-44.544-3.584-42.496-10.752-30.208q-5.12-7.168-26.112-13.824t-52.736-12.288-70.656-10.752-77.824-8.704-75.776-5.12-64.512-1.536-64 2.048-74.752 5.12-76.288 7.168-69.12 9.216-53.248 9.728-27.136 9.728q-9.216 7.168-14.336 45.568t4.096 99.84q5.12 34.816 28.16 53.248t53.248 29.184 63.488 18.944 57.856 24.576q19.456 12.288 30.208 23.552t15.36 22.528 4.608 23.552-1.024 27.648q-2.048 22.528-14.848 34.816t-28.16 25.6q-8.192 6.144-13.824 17.92t-10.752 24.064q-5.12 13.312-9.216 29.696-2.048 2.048-6.144 7.168-3.072 5.12-7.168 13.824t-9.216 25.088-6.656 29.184 0.512 22.016q1.024 11.264 5.12 19.456 0 35.84 4.096 71.68 4.096 29.696 13.312 64.512t29.696 62.464q18.432 25.6 39.936 42.496t44.544 26.112 46.592 12.8 45.056 3.584q23.552-2.048 38.4-5.632t24.064-8.704 15.872-12.288 13.824-14.336l19.456 0q9.216 0 17.92-2.56t17.408-9.728 18.944-20.48q23.552-30.72 34.816-67.072t16.384-69.12q5.12-37.888 6.144-74.752 2.048-5.12 3.072-12.288t1.536-17.408-1.536-25.6q-2.048-20.48-6.144-32.256t-9.216-17.92q-5.12-7.168-11.264-10.24-4.096-16.384-9.216-29.696-5.12-12.288-10.752-24.064t-13.824-17.92q-17.408-14.336-28.672-24.064t-15.36-33.28q-3.072-14.336-2.048-28.672t7.68-29.184 21.504-28.16 41.472-23.552q23.552-9.216 51.712-16.896t54.272-17.408 46.592-25.088 28.672-39.936zM549.888 148.48q3.072 6.144 0.512 12.8t-7.68 12.8-12.288 13.312l-47.104 0q-7.168-7.168-11.264-13.312-4.096-5.12-6.656-11.264t0.512-11.264q7.168-14.336 12.288-25.088t11.264-16.896q-2.048-9.216-6.144-26.112t-7.68-34.816-6.144-33.792-2.56-24.064q0-5.12 4.608-12.288t10.752-14.848 12.8-12.8 11.776-5.12 12.288 5.12 13.824 11.776 11.264 14.336 4.608 12.8q0 6.144-3.072 20.992t-6.656 33.28-7.68 35.84-7.168 27.648q6.144 5.12 11.776 14.848t13.824 26.112z"  horiz-adv-x="1024" />

    
    <glyph glyph-name="iconfontzichan" unicode="&#58899;" d="M925.724809 681.883547 98.272121 681.883547c-52.585767 0-95.474287-42.951231-95.474287-95.471398l0-572.826344c0-52.522214 42.88852-95.470375 95.474287-95.470375l827.452689 0c52.462965 0 95.477357 42.948161 95.477357 95.470375l0 572.826344C1021.202166 638.933339 978.187774 681.883547 925.724809 681.883547zM957.550936 13.585805c0-17.245779-14.5428-31.824823-31.826127-31.824823L98.272121-18.239018c-17.280256 0-31.825103 14.579043-31.825103 31.824823L66.447017 300l891.103919 0L957.550936 13.585805zM957.550936 490.942797 66.447017 490.942797l0 95.470375c0 17.246803 14.544847 31.824823 31.825103 31.824823l827.452689 0c17.283327 0 31.826127-14.576997 31.826127-31.824823L957.550936 490.942797zM130.097224 172.704802l63.650207 0 0-127.295198-63.650207 0 0 127.295198ZM257.396614 172.704802l63.6543 0 0-127.295198-63.6543 0 0 127.295198ZM384.701121 172.704802l63.650207 0 0-127.295198-63.650207 0 0 127.295198Z"  horiz-adv-x="1024" />

    
    <glyph glyph-name="dangan" unicode="&#58903;" d="M784.945799 502.501571 239.054201 502.501571C228.293106 502.501571 219.578959 493.495003 219.578959 482.441487s8.714147-20.001599 19.475241-20.001599l545.891599 0C795.706894 462.439888 804.421041 471.446456 804.421041 482.441487S795.706894 502.501571 784.945799 502.501571zM804.421041 603.971672 219.578959 603.971672c-10.819579 0-19.533726-8.948084-19.533726-20.001599C200.045234 572.916557 208.759381 564.026958 219.578959 564.026958l584.842081 0c10.819579 0 19.533726 8.8896 19.533726 20.001599C823.954766 595.023588 815.240619 603.971672 804.421041 603.971672zM969.580444 395.300017 892.673711 682.7499c-0.175453 0.70181-0.350905 1.286653-0.643326 1.988463-12.106231 31.639957-29.768462 52.694272-76.731281 52.694272L207.414244 735.736593c-38.950483 0-61.817808-15.732252-76.555828-52.40185C130.565995 682.515963 130.273574 681.697184 130.098121 680.93689L53.834714 387.404649C47.927809 381.614712 44.126335 374.304186 44.126335 365.823976l0-459.978297c0-21.990062 25.674567-43.278314 47.079788-43.278314l857.846365 0c21.40522 0 30.821178 21.288252 30.821178 43.278314L979.873665 365.823976C979.873665 378.632018 976.540065 388.925238 969.580444 395.300017zM745.936832 70.537209 278.063168 70.537209l0 116.968416 467.873665 0L745.936832 70.537209zM687.452624 362.95825c0 0-41.348335-0.526358-61.759324-0.526358L408.073562 362.431892C387.662574 362.431892 336.547376 362.95825 336.547376 362.95825L102.610543 362.95825l64.800503 306.340282c7.953852 19.475241 15.498315 26.376378 40.061683 26.376378l607.943343 1.754526c27.019704 0 32.458736-6.901137 40.003198-26.317894L921.389457 362.95825 687.452624 362.95825z"  horiz-adv-x="1024" />

    
    <glyph glyph-name="shijian" unicode="&#59049;" d="M912.717498 469.292708c-21.904892 51.791573-53.260018 98.299817-93.192495 138.231271-39.932478 39.932478-86.440721 71.287603-138.232295 93.193519-53.633524 22.685675-110.591771 34.187637-169.292708 34.187637-58.700937 0-115.659183-11.501962-169.292708-34.187637-51.79055-21.905916-98.298793-53.260018-138.231271-93.193519-39.932478-39.932478-71.287603-86.440721-93.193519-138.231271-22.684652-53.633524-34.187637-110.591771-34.187637-169.292708 0-58.700937 11.501962-115.659183 34.187637-169.292708 21.905916-51.791573 53.261041-98.299817 93.193519-138.232295s86.440721-71.287603 138.231271-93.192495c53.633524-22.685675 110.591771-34.187637 169.292708-34.187637 58.699913 0 115.65816 11.501962 169.292708 34.187637 51.791573 21.904892 98.299817 53.260018 138.232295 93.192495s71.287603 86.440721 93.192495 138.232295c22.685675 53.633524 34.187637 110.591771 34.187637 169.292708C946.905134 358.700937 935.403173 415.659183 912.717498 469.292708zM783.344988 28.655012c-72.478731-72.478731-168.844499-112.394836-271.344988-112.394836S313.133743-43.82372 240.655012 28.655012 128.260176 197.499511 128.260176 300c0 102.500489 39.916105 198.866257 112.394836 271.344988s168.844499 112.394836 271.344988 112.394836 198.866257-39.916105 271.344988-112.394836S895.739824 402.500489 895.739824 300C895.739824 197.499511 855.82372 101.133743 783.344988 28.655012zM537.582655 586.525736c0 14.128789-11.453866 25.582655-25.582655 25.582655s-25.582655-11.453866-25.582655-25.582655l0-274.246061c0-2.117221 0.261966-4.172019 0.747014-6.139837-0.485047-1.967818-0.747014-4.022617-0.747014-6.139837 0-14.128789 11.453866-25.582655 25.582655-25.582655l286.525736 0c14.128789 0 25.582655 11.452843 25.582655 25.582655s-11.453866 25.582655-25.582655 25.582655l-260.943081 0L537.582655 586.525736z"  horiz-adv-x="1024" />

    
    <glyph glyph-name="yule" unicode="&#59168;" d="M680.391 5.036c51.774 0 52.325 80.785 0.574 80.785C629.191 85.821 628.64 5.036 680.391 5.036L680.391 5.036zM680.391 177.719c51.774 0 52.325 80.784 0.574 80.784C629.191 258.503 628.64 177.719 680.391 177.719L680.391 177.719zM822.672 98.5c51.774 0 52.325 80.785 0.575 80.785C771.473 179.285 770.921 98.5 822.672 98.5L822.672 98.5zM749.561 373.462c130.197 0 235.746-106.069 235.746-236.931 0-130.862-105.549-236.926-235.746-236.926L278.064-100.395c-130.207 0-235.74 106.063-235.74 236.926 0 130.861 105.534 236.931 235.74 236.931l206.28 0L484.344 561.035c0 43.658 31.391 108.597 117.87 108.597s117.87-64.938 117.87-108.597l0-39.486c0.256-11.336 5.322-49.363 58.938-49.363 56.085 0 58.933 41.126 58.933 49.363L837.955 699.246l58.938 0 0-177.697c0-43.653-31.396-108.607-117.871-108.607-86.479 0-117.875 64.954-117.875 108.607l0 39.486c-0.257 11.336-5.322 49.362-58.933 49.362-56.085 0-58.938-41.126-58.938-49.362l0-187.573L749.561 373.462 749.561 373.462zM464.818 106.927l0 59.234L346.937 166.161 346.937 284.623l-58.938 0 0-118.462-117.87 0 0-59.234 117.87 0 0-118.463 58.938 0L346.937 106.927l78.47 0L464.818 106.927zM425.407 106.927"  horiz-adv-x="1024" />

    
    <glyph glyph-name="zuobiao" unicode="&#58948;" d="M532.465674 571.630659c79.918457 0 144.692315-64.773858 144.692315-144.692315S612.384131 282.246028 532.465674 282.246028s-144.692315 64.773858-144.692315 144.692315S452.547217 571.630659 532.465674 571.630659zM849.888278 426.938343c0 175.18617-142.134106 317.320276-317.422604 317.320276S215.04307 602.124513 215.04307 426.938343c0-64.05756 18.930748-123.510343 51.573499-173.446587L266.104927 253.491756l237.913461-380.149895c5.116419-10.437494 15.963226-17.60048 28.447287-17.60048s23.22854 7.162986 28.447287 17.60048l237.913461 380.149895L798.212451 253.491756C830.855201 303.428 849.888278 362.880783 849.888278 426.938343z"  horiz-adv-x="1024" />

    
    <glyph glyph-name="caiwu" unicode="&#58894;" d="M783.516 367.329c14.11 0 25.564 11.238 25.564 25.343v16.497c0 14.105-11.454 25.669-25.562 25.669h-201.345l168.408 168.405c9.971 9.974 9.971 26.143-0.006 36.118l-11.663 11.662c-9.973 9.977-26.144 9.977-36.116 0.001l-209.161-209.162c-1.8-1.801-3.271-3.806-4.421-5.938-1.15 2.132-2.621 4.136-4.421 5.938l-209.163 209.162c-9.974 9.975-26.143 9.975-36.117-0.001l-11.662-11.662c-9.976-9.977-9.976-26.145-0.002-36.118l168.406-168.406h-201.344c-14.109 0-25.542-11.564-25.542-25.668v-16.498c0-14.104 11.433-25.343 25.542-25.343h257.346v-122.155h-257.346c-14.109 0-25.542-11.105-25.542-25.209v-16.498c0-14.104 11.433-25.801 25.542-25.801h257.346v-248.179c0-11.497 12.352-21.852 26.456-21.852h16.498c14.104 0 24.553 10.353 24.553 21.852v248.18h263.753c14.11 0 25.564 11.697 25.564 25.801v16.498c0 14.104-11.454 25.209-25.562 25.209l-263.754 0v122.155h263.753z"  horiz-adv-x="1024" />

    
    <glyph glyph-name="magnifier" unicode="&#58885;" d="M249.6 447.2C243.2 434.4 224 428 217.6 434.4 204.8 434.4 198.4 453.6 198.4 466.4c6.4 19.2 19.2 32 25.6 51.2l0 0 0 0C236.8 530.4 249.6 543.2 262.4 556l0 0 0 0c12.8 12.8 25.6 25.6 44.8 38.4C320 600.8 339.2 613.6 358.4 620 371.2 626.4 384 620 390.4 607.2c6.4-12.8 0-25.6-12.8-32C358.4 568.8 345.6 562.4 332.8 549.6 320 543.2 307.2 530.4 300.8 524l0 0C288 511.2 275.2 498.4 268.8 485.6l0 0C262.4 472.8 249.6 460 249.6 447.2L249.6 447.2zM812.8 63.2l179.2-179.2c19.2-19.2 19.2-44.8 0-57.6-12.8-19.2-44.8-19.2-57.6 0l-179.2 179.2c-32-32-70.4-51.2-115.2-70.4-51.2-19.2-108.8-32-172.8-32-57.6 0-121.6 12.8-172.8 32l0 0 0 0c-57.6 25.6-102.4 57.6-147.2 96l0 0c-38.4 38.4-76.8 89.6-96 147.2l0 0C32 236 19.2 293.6 19.2 351.2c0 57.6 12.8 121.6 32 172.8 25.6 57.6 57.6 102.4 96 147.2 83.2 83.2 192 134.4 320 134.4 57.6 0 121.6-12.8 172.8-32l0 0 0 0c57.6-25.6 102.4-57.6 147.2-96l0 0c38.4-38.4 70.4-89.6 96-140.8l0 0c19.2-51.2 32-108.8 32-166.4 0-57.6-12.8-121.6-32-172.8C864 140 844.8 95.2 812.8 63.2L812.8 63.2zM608 690.4C563.2 709.6 518.4 716 467.2 716c-102.4 0-192-38.4-256-108.8C172.8 575.2 147.2 536.8 128 492 115.2 447.2 102.4 402.4 102.4 351.2 102.4 300 115.2 255.2 128 210.4l0 0c19.2-44.8 44.8-83.2 76.8-121.6l0 0 0 0c32-32 76.8-64 121.6-76.8l0 0c44.8-19.2 89.6-25.6 140.8-25.6 51.2 0 96 12.8 140.8 25.6 44.8 19.2 83.2 44.8 115.2 76.8l0 0 0 0c32 32 64 76.8 76.8 121.6 19.2 44.8 25.6 89.6 25.6 140.8 0 51.2-6.4 96-25.6 140.8l0 0c-19.2 44.8-44.8 83.2-76.8 115.2l0 0C691.2 645.6 652.8 671.2 608 690.4L608 690.4 608 690.4z"  horiz-adv-x="1024" />

    
    <glyph glyph-name="qingjia" unicode="&#58904;" d="M440.591936-157.70235c-15.012925 0-27.233248 12.130272-27.233248 27.043936l0 62.942541c0 127.477346 77.281107 240.541425 196.874903 288.036136l7.17747 2.849908-6.093788 4.755304c-45.267996 35.371602-71.237461 88.195691-71.237461 144.946206 0 101.673657 83.276658 184.391591 185.640024 184.391591s185.623651-82.717933 185.623651-184.391591c0-56.757678-25.968441-109.589954-71.237461-144.946206l-6.093788-4.755304 7.17747-2.849908c119.610168-47.493687 196.891276-160.557766 196.874903-288.036136l0-62.942541c0-14.914688-12.220323-27.043936-27.233248-27.043936L440.591936-157.70235zM983.582764-103.613454l0 35.897581c0 141.266397-115.66737 256.19494-257.82916 256.19494-142.210909 0-257.912048-114.928542-257.912048-256.19494l0-35.897581L983.582764-103.613454zM725.719835 503.181539c-72.321142 0-131.157155-58.458413-131.157155-130.310881s58.836013-130.310881 131.157155-130.310881 131.157155 58.458413 131.157155 130.310881S798.040978 503.181539 725.719835 503.181539zM359.449894 363.081711 227.521166 231.210287 270.227827 199.780461 417.16948 346.713928 417.16948 581.276175 359.449894 581.276175ZM69.722234 308.1711c-18.083867 84.262102-2.282996 170.528861 44.512796 242.907309 46.77942 72.386634 118.953206 122.213459 203.231681 140.305513 22.387893 4.804423 45.284369 7.252171 68.033489 7.252171 86.151126 0 169.970136-35.380812 230.481302-97.173157l63.697741 22.790052C607.047016 710.093029 497.637163 761.142705 385.599461 761.142705c-27.118638 0-54.450123-2.915399-81.256652-8.67252C203.934981 730.904007 117.832975 671.394658 61.93692 584.898679 6.025516 498.409862-12.881089 395.480608 8.686112 295.071757c32.604582-151.811568 151.672398-268.251533 303.787888-297.43111l39.914058 57.201793C212.54201 68.639678 99.501467 169.507994 69.722234 308.1711z"  horiz-adv-x="1039" />

    
    <glyph glyph-name="jia" unicode="&#58902;" d="M832 320 576 320 576 64C576 28.672 547.328 0 512 0 476.608 0 448 28.672 448 64L448 320 192 320C156.608 320 128 348.672 128 384 128 419.328 156.608 448 192 448L448 448 448 704C448 739.328 476.608 768 512 768 547.328 768 576 739.328 576 704L576 448 832 448C867.328 448 896 419.328 896 384 896 348.672 867.328 320 832 320Z"  horiz-adv-x="1024" />

    
    <glyph glyph-name="fanhui" unicode="&#59107;" d="M831.6 739.6 521.8 383.2 831 27.6c20.7-21.2 20.9-55.3 0.5-76.1-20.4-20.9-53.6-20.6-74.3 0.5l-341 392.2c-0.5 0.5-1.2 0.9-1.7 1.4-20.6 21.1-20.6 55.4 0 76.6L757 816.1c20.7 21.2 54.1 21.2 74.7 0.1C852.3 795 852.3 760.7 831.6 739.6z"  horiz-adv-x="1024" />

    
    <glyph glyph-name="zhichu" unicode="&#58974;" d="M480.403667 447.678789C489.998619 447.678789 498.977666 448.627688 508.428246 448.883832 574.963049 488.255639 655.463575 511.62071 742.558666 511.62071 763.294762 511.62071 783.185577 508.932355 803.103172 506.408159 881.237853 540.920194 929.808745 587.726017 929.808745 639.504547L929.808745 703.446468C929.808745 809.385677 728.598769 895.274556 480.404829 895.274556 232.203902 895.274556 31.000907 809.385677 31.000907 703.446468L31.000907 639.504547C30.999745 533.559519 232.20274 447.678789 480.403667 447.678789ZM1051.526481 248.747339 1051.526481 131.36593 499.127856 131.36593 499.127856 248.747339 1051.526481 248.747339ZM387.072608-15.158766C382.697189-8.655017 378.542984-2.024352 374.623967 4.727392 177.720718 20.822606 30.999745 81.610451 30.999745 171.925986L30.999745 64.026106C30.999745 35.790788 45.293797 8.981727 70.956026-15.157603 141.585655-81.594603 298.350996-127.799657 480.403667-127.799657 488.897199-127.799657 496.827211-126.929926 505.203152-126.73083 456.753339-97.434841 416.738846-59.255278 387.072608-15.158766ZM351.34505 264.843716C367.867561 309.705168 394.207407 350.349547 428.883607 385.458863 205.259788 394.046705 30.998582 457.171287 30.998582 555.579832L30.998582 447.679952C30.999745 361.017982 166.500406 288.636085 351.34505 264.843716ZM344.476877 73.931927C336.277908 101.600232 330.596147 130.092863 330.596147 159.938403 330.596147 173.897138 333.558115 187.157293 335.412838 200.702699 158.779964 221.357297 30.999745 279.598827 30.999745 363.752912L30.999745 255.847207C30.999745 170.271521 163.177508 98.633614 344.476877 73.931927Z"  horiz-adv-x="1085" />

    
    <glyph glyph-name="tuandui" unicode="&#58952;" d="M999.038492 162.215778c-11.493775 52.060703-40.348963 99.338473-81.498152 133.418662-13.077853 10.831696-27.231201 20.163225-42.163285 27.907607 54.177923 35.82288 89.99364 97.275487 89.99364 166.946266 0 106.172111-83.165118 193.250352-187.768501 199.600991 0.016373-0.085958 0.014326-0.185218 0.027629-0.274246-15.863293-0.728594-28.502148-13.817704-28.502148-29.861098 0-16.066931 12.675694-29.169343 28.571732-29.863145l0-0.10847c71.473845-6.271844 127.73215-66.418712 127.73215-139.493008 0-77.235059-62.836117-140.070152-140.071176-140.070152-4.01443 0-7.981788 0.198521-11.908214 0.544399-1.62194 0.264013-3.28379 0.406253-4.980431 0.406253-17.017582 0-30.812773-13.795191-30.812773-30.812773 0-17.017582 13.795191-30.812773 30.812773-30.812773 0.589424 0 1.173732 0.020466 1.75497 0.053212l0-0.01842c5.000897 0.440022 10.042727 0.699941 15.133675 0.699941 81.950454 0 153.85511-56.668651 173.880189-135.831618-7.305383-3.559059-22.191418-9.125845-50.508347-14.280238-9.829879-1.789763-20.410865-3.344165-31.535227-4.660136-16.166191-0.397043-29.150924-13.616112-29.150924-29.877471 0-16.512069 13.384845-29.896914 29.896914-29.896914 0.171915 0 0.340761 0.010233 0.511653 0.013303 0-0.004093-0.002047-0.008186-0.002047-0.013303 0.106424 0.00614 0.215918 0.01535 0.322341 0.021489 0.813528 0.022513 1.61887 0.071631 2.415003 0.157589 19.046798 1.327228 41.401945 5.553483 56.814983 9.067516 21.595854 4.922103 39.024805 10.909467 51.80283 17.795295 26.428929 14.241352 31.977295 32.16763 31.977295 44.698015C1001.787092 152.563954 1000.86407 157.437961 999.038492 162.215778zM24.961508 162.215778c11.492752 52.060703 40.348963 99.338473 81.498152 133.418662 13.077853 10.831696 27.231201 20.163225 42.163285 27.907607C94.445022 359.364927 58.629305 420.817534 58.629305 490.488313c0 106.172111 83.165118 193.250352 187.768501 199.600991-0.016373-0.085958-0.014326-0.185218-0.027629-0.274246 15.863293-0.728594 28.502148-13.817704 28.502148-29.861098 0-16.066931-12.675694-29.169343-28.571732-29.863145l0-0.10847c-71.473845-6.271844-127.731126-66.418712-127.731126-139.493008 0-77.235059 62.836117-140.070152 140.071176-140.070152 4.01443 0 7.981788 0.198521 11.908214 0.544399 1.62194 0.264013 3.28379 0.406253 4.980431 0.406253 17.017582 0 30.812773-13.795191 30.812773-30.812773 0-17.017582-13.795191-30.812773-30.812773-30.812773-0.589424 0-1.173732 0.020466-1.75497 0.053212l0-0.01842c-5.000897 0.440022-10.042727 0.699941-15.133675 0.699941-81.950454 0-153.85511-56.668651-173.880189-135.831618 7.305383-3.559059 22.191418-9.125845 50.508347-14.280238 9.829879-1.789763 20.410865-3.344165 31.535227-4.660136 16.166191-0.397043 29.150924-13.616112 29.150924-29.877471 0-16.512069-13.384845-29.896914-29.896914-29.896914-0.171915 0-0.340761 0.010233-0.511653 0.013303 0-0.004093 0.002047-0.008186 0.002047-0.013303-0.106424 0.00614-0.215918 0.01535-0.322341 0.021489-0.813528 0.022513-1.61887 0.071631-2.415003 0.157589-19.046798 1.327228-41.401945 5.553483-56.814983 9.067516-21.595854 4.922103-39.024805 10.909467-51.80283 17.795295-26.428929 14.241352-31.977295 32.16763-31.977295 44.698015C22.211884 152.563954 23.134907 157.437961 24.961508 162.215778zM695.364191 272.500557c-18.431791 15.264659-38.530548 28.030403-59.974953 38.130436 16.734126 9.970072 32.344662 22.086018 46.477544 36.2189 44.655036 44.655036 69.24713 104.027262 69.24713 167.178557s-24.592095 122.523521-69.24713 167.178557c-44.655036 44.655036-104.027262 69.248154-167.17958 69.248154s-122.523521-24.593118-167.17958-69.248154c-44.655036-44.655036-69.248154-104.027262-69.248154-167.17958s24.593118-122.523521 69.248154-167.178557c14.132882-14.132882 29.743418-26.248827 46.477544-36.2189-21.444405-10.100032-41.543162-22.865777-59.97393-38.130436-48.989761-40.573067-83.308381-96.907097-96.885608-158.914336-2.046612-5.207605-3.081175-10.503215-3.081175-15.794731 0-13.465686 6.15007-32.830733 35.452443-48.621371 15.005762-8.085142 35.622312-15.151072 61.278645-20.998243 49.469692-11.276834 114.783233-17.486256 183.912683-17.486256 69.128427 0 134.442992 6.209422 183.912683 17.486256 25.656333 5.847172 46.273906 12.913101 61.278645 20.998243 29.30135 15.790638 35.452443 35.155684 35.452443 48.621371 0 5.291516-1.035586 10.586103-3.082198 15.794731C778.672572 175.594483 744.353952 231.927489 695.364191 272.500557zM338.198605 514.029472c0 97.315396 79.172177 176.487573 176.487573 176.487573s176.487573-79.172177 176.487573-176.487573S612.002598 337.541899 514.687202 337.541899 338.198605 416.714076 338.198605 514.029472zM668.401096 83.120348c-42.926672-8.057513-97.515964-12.495592-153.714917-12.495592s-110.787222 4.438079-153.713894 12.495592c-36.939307 6.933923-56.408731 14.919804-64.819285 19.776416 23.245424 101.514021 114.400516 174.704974 218.533179 174.704974 104.133685 0 195.288778-73.190953 218.532155-174.704974C724.808804 98.040153 705.340403 90.055295 668.401096 83.120348z"  horiz-adv-x="1024" />

    
    <glyph glyph-name="2" unicode="&#58890;" d="M915.0464 813.6704 857.7024 867.5328 493.7728 525.312 125.952 871.2192 68.8128 817.5616 416.5632 490.496 190.2592 490.496 190.2592 414.3104 433.152 414.3104 433.152 198.656 190.2592 198.656 190.2592 122.4704 433.152 122.4704 433.152-80.4864 554.5984-80.4864 554.5984 122.4704 797.4912 122.4704 797.4912 198.656 554.5984 198.656 554.5984 414.3104 797.4912 414.3104 797.4912 490.496 571.392 490.496Z"  horiz-adv-x="1024" />

    
    <glyph glyph-name="guanbi" unicode="&#58932;" d="M825.173652-9.525702c21.502733-21.503756 56.491619-21.503756 77.996398 0 21.503756 21.503756 21.503756 56.492642 0 77.996398L589.32511 382.313591l3.618411 3.617387 310.225507 310.227554c10.416234 10.416234 16.152888 24.26566 16.152888 38.997176s-5.736655 28.580942-16.152888 38.997176c-21.502733 21.502733-56.491619 21.503756-77.996398 0L511.330758 460.30999 197.485817 774.152884c-10.751878 10.751878-24.874527 16.127306-38.997176 16.127306-14.123672 0-28.246321-5.375427-38.998199-16.127306-10.417257-10.416234-16.153912-24.26566-16.153912-38.997176s5.736655-28.580942 16.153912-38.997176l313.843918-313.844941L119.490441 68.470697c-21.503756-21.503756-21.503756-56.492642 0-77.996398s56.492642-21.50478 77.995375 0L511.329734 304.318216 825.173652-9.525702z"  horiz-adv-x="1024" />

    
    <glyph glyph-name="dianhua" unicode="&#58925;" d="M246.947322 443.421344c71.009264-139.553383 185.167257-253.710352 324.966233-324.719616L680.400385 227.434152c13.560854 13.560854 33.039487 17.505699 50.051953 12.081153 55.229882-18.24555 114.650203-28.108175 176.044482-28.108175 27.368324 0 49.312102-21.943778 49.312102-49.312102l0-172.591847c0-27.368324-21.943778-49.312102-49.312102-49.312102-463.040938 0-838.305741 375.264802-838.305741 838.305741 0 27.368324 22.190395 49.312102 49.312102 49.312102l172.591847 0c27.368324 0 49.312102-21.943778 49.312102-49.312102 0-61.393255 9.862625-120.8146 28.108175-176.044482 5.424546-17.012466 1.479701-36.491099-12.081153-50.051953L246.947322 443.421344z"  horiz-adv-x="1024" />

    
    <glyph glyph-name="revenue" unicode="&#58926;" d="M320.637 264.987c16.538 44.9 42.913 85.587 77.613 120.725-223.838 8.6-398.25 71.788-398.25 170.288v-108c0-86.75 135.625-159.188 320.637-183.013zM449.813 448c9.6 0 18.587 0.95 28.050 1.2 66.6 39.4 147.175 62.788 234.35 62.788 20.75 0 40.663-2.688 60.6-5.212 78.2 34.537 126.825 81.387 126.825 133.213v64c-0.013 106.050-201.413 192.012-449.825 192.012-248.425 0-449.813-85.962-449.813-192v-64c0-106.050 201.387-192 449.813-192zM313.762 73.913c-8.212 27.688-13.887 56.212-13.887 86.087 0 13.975 2.962 27.25 4.813 40.8-176.8 20.675-304.688 78.963-304.688 163.2v-108c0-85.663 132.3-157.362 313.762-182.087zM356.387-15.263c-4.375 6.513-8.538 13.15-12.462 19.9-197.075 16.113-343.925 76.95-343.925 167.35v-108c0-28.263 14.313-55.1 40-79.25 70.688-66.5 227.6-112.737 409.813-112.737 8.5 0 16.438 0.862 24.825 1.063-48.5 29.325-88.55 67.538-118.25 111.675zM825.1 249.712v198.9h-167.55v-198.912h-209.137v-167.55h209.137v-209.138h167.55l0 209.15h198.913v167.55h-198.913z"  horiz-adv-x="1024" />

    
    <glyph glyph-name="xiaoxi" unicode="&#58907;" d="M506.480838 1.713711l-83.59683 0L193.004352-123.685579 193.004352 106.190032c-114.594533 80.443168-188.097418 195.893102-188.097418 334.417655 0 242.374995 224.571311 438.876787 501.573905 438.876787 277.00765 0 501.577949-196.501793 501.577949-438.876787C1008.077998 198.190226 783.511743 1.713711 506.480838 1.713711L506.480838 1.713711 506.480838 1.713711zM506.480838 816.806568c-242.374995 0-438.914199-168.431264-438.914199-376.19787 0-127.489261 74.966978-245.444735 188.139885-313.476486l0-139.338499 167.154227 76.617115 83.600875 0c242.374995 0 438.919254 168.431264 438.919254 376.19787C945.401103 648.394516 748.860888 816.806568 506.480838 816.806568L506.480838 816.806568 506.480838 816.806568zM757.303685 377.911581c-34.651866 0-62.721384 28.064462-62.721384 62.716328 0 34.651866 28.069518 62.721384 62.721384 62.721384 34.609399 0 62.678917-28.069518 62.678917-62.721384C819.982602 405.976043 791.912073 377.911581 757.303685 377.911581L757.303685 377.911581 757.303685 377.911581zM506.480838 377.911581c-34.651866 0-62.716328 28.064462-62.716328 62.716328 0 34.651866 28.064462 62.721384 62.716328 62.721384 34.651866 0 62.721384-28.069518 62.721384-62.721384C569.202222 405.976043 541.132704 377.911581 506.480838 377.911581L506.480838 377.911581 506.480838 377.911581zM255.687313 377.911581c-34.613444 0-62.681951 28.064462-62.681951 62.697117 0 34.633666 28.068507 62.721384 62.681951 62.721384 34.651866 0 62.716328-28.069518 62.716328-62.721384C318.403642 405.957843 290.314912 377.911581 255.687313 377.911581L255.687313 377.911581 255.687313 377.911581zM255.687313 377.911581"  horiz-adv-x="1024" />

    
    <glyph glyph-name="jilu" unicode="&#59038;" d="M13.895818-106.153863c-1.501698-14.439801 12.483507-24.961906 25.942607-19.149209 16.03344 6.977279 166.652773 72.75065 236.778004 103.351586L42.377011 150.605925C33.596672 72.772996 15.177881-93.430289 13.895818-106.153863zM653.578495 117.931214c0-19.772363 16.069195-35.805803 35.861989-35.805803l286.655846 0c19.787686 0 35.856881 16.03344 35.856881 35.805803 0 19.700853-16.069195 35.739402-35.856881 35.739402l-286.655846 0C669.64769 153.670616 653.578495 137.632068 653.578495 117.931214zM803.554243 655.615876c16.835368 22.82173 11.947186 55.011198-10.879652 71.83635L606.499738 864.58692c-22.862593 16.825152-55.041845 11.931863-71.866997-10.894975l-15.231513-20.681554 268.906179-198.070961L803.554243 655.615876zM498.060765 804.064386 65.173202 216.81346l268.901071-198.137362 432.897779 587.307113L498.060765 804.064386zM356.31882 153.108756c-10.067509-13.944343-29.49254-17.126513-43.416452-7.094759-13.923911 10.04197-17.070327 29.49254-7.007926 43.452206l291.395901 404.038608c10.067509 13.949451 29.49254 17.131621 43.411344 7.099867 13.918804-10.031754 17.075435-29.49254 7.002818-43.447099L356.31882 153.108756zM980.580994-56.403717 407.652389-56.403717c-19.757039 0-35.795588-15.977254-35.795588-35.800695 0-19.762147 16.038548-35.795588 35.795588-35.795588l572.928605 0c19.80301 0 35.83645 16.03344 35.83645 35.795588C1016.417444-72.380971 1000.384004-56.403717 980.580994-56.403717z"  horiz-adv-x="1024" />

    
    <glyph glyph-name="gongnengjianjie" unicode="&#59051;" d="M843.328 861.376 843.328 861.376 843.328 861.376 843.328 861.376 843.328 861.376 843.328 861.376zM158.72 620.608l191.872 0 0-192.64L158.72 427.968 158.72 620.608 158.72 620.608 158.72 620.608 158.72 620.608zM840.576 632.064 840.576 863.68 0 863.68l0-888.704c0-49.536 35.328-76.672 84.672-76.672l847.808 0c49.344 0 90.944 27.136 90.944 76.672L1023.424 632.064 840.576 632.064 840.576 632.064 840.576 632.064 840.576 632.064zM475.072 668.736l219.264 0 0-66.496L475.072 602.24 475.072 668.736 475.072 668.736 475.072 668.736 475.072 668.736zM475.072 438.336l219.264 0 0-64.128L475.072 374.208 475.072 438.336 475.072 438.336 475.072 438.336 475.072 438.336zM109.568 668.736l292.416 0 0-293.568L109.568 375.168 109.568 668.736 109.568 668.736 109.568 668.736 109.568 668.736zM694.4 44.928 113.024 44.928l0 63.04 581.312 0L694.336 44.928 694.4 44.928 694.4 44.928 694.4 44.928zM694.4 191.68 109.568 191.68l0 57.472 584.768 0L694.336 191.68 694.4 191.68 694.4 191.68 694.4 191.68zM976.512-25.024c0-24.768-19.456-40.128-44.032-40.128l-44.608 0c-24.512 0-47.232 15.36-47.232 40.128L840.64 512.512l0-0.064L840.64 595.392l135.936 0L976.576-25.024 976.512-25.024 976.512-25.024 976.512-25.024zM976.512-25.024"  horiz-adv-x="1024" />

    
    <glyph glyph-name="gongneng" unicode="&#59050;" d="M256 704 128 704C110.336 704 96 689.664 96 672S110.336 640 128 640l128 0c17.664 0 32 14.336 32 32S273.664 704 256 704zM448 640l448 0c17.664 0 32 14.336 32 32S913.664 704 896 704L448 704C430.336 704 416 689.664 416 672S430.336 640 448 640zM256 384 128 384C110.336 384 96 369.664 96 352S110.336 320 128 320l128 0c17.664 0 32 14.336 32 32S273.664 384 256 384zM896 384 448 384C430.336 384 416 369.664 416 352S430.336 320 448 320l448 0c17.664 0 32 14.336 32 32S913.664 384 896 384zM256 64 128 64c-17.664 0-32-14.336-32-32S110.336 0 128 0l128 0c17.664 0 32 14.336 32 32S273.664 64 256 64zM896 64 448 64c-17.664 0-32-14.336-32-32S430.336 0 448 0l448 0c17.664 0 32 14.336 32 32S913.664 64 896 64z"  horiz-adv-x="1024" />

    
    <glyph glyph-name="jian" unicode="&#59090;" d="M85.5552 469.3248C38.272 469.3248 0 431.1296 0 384c0-47.0272 38.2976-85.3248 85.5552-85.3248l852.9152 0C985.728 298.6752 1024 336.8704 1024 384c0 47.0272-38.2976 85.3248-85.5552 85.3248L85.5552 469.3248 85.5552 469.3248z"  horiz-adv-x="1024" />

    
    <glyph glyph-name="tongxunlu-copy-copy" unicode="&#58976;" d="M813.952 864.399h-605.851c-65.532 0-118.659-53.125-118.659-118.659v-91.529h121.132v-96.16h-121.132v-123.911h121.132v-96.16h-121.132v-123.917h121.132v-96.16h-121.132v-91.529c0-65.532 53.125-118.659 118.659-118.659h605.851c65.536 0 118.659 53.125 118.659 118.659v719.367c-0.001 65.532-53.123 118.658-118.659 118.658zM777.732 138.537c-1.506-0.231-2.985-0.406-4.433-0.406-11.183 0-21.148 7.937-23.291 19.351-18.019 95.715-101.914 165.125-199.483 165.125-97.221 0-181.058-69.121-199.338-164.43-2.491-12.863-14.891-21.322-27.781-18.83-12.891 2.433-21.322 14.891-18.86 27.754 18.863 98.311 94.519 173.348 188.811 195.586-51.338 22.23-87.39 73.299-87.39 132.693 0 79.724 64.863 144.615 144.615 144.615s144.615-64.892 144.615-144.615c0-59.402-36.060-110.478-87.407-132.704 94.571-22.306 170.256-97.663 188.858-196.386 2.433-12.863-6.054-25.319-18.917-27.754zM647.747 495.381c0 53.535-43.599 97.105-97.164 97.105s-97.164-43.569-97.164-97.105 43.599-97.105 97.164-97.105c53.565 0 97.164 43.569 97.164 97.105z"  horiz-adv-x="1024" />

    
    <glyph glyph-name="e66f" unicode="&#58893;" d="M640 567.467c0-12.8-8.533-21.333-21.333-21.333h-213.333c-12.8-0-21.333 8.533-21.333 21.333v174.933c0 12.8 8.533 25.6 21.333 25.6h213.333c12.8 0 21.333-12.8 21.333-25.6v-174.933zM640 25.6c0-12.8-8.533-21.333-21.333-21.333h-213.333c-12.8-4.267-21.333 8.533-21.333 21.333v174.933c0 12.8 8.533 21.333 21.333 21.333h213.333c12.8 0 21.333-8.533 21.333-21.333l0-174.933zM1024 25.6c0-12.8-8.533-21.333-21.333-21.333h-213.333c-12.8 0-21.333 8.533-21.333 21.333v174.933c0 12.8 8.533 21.333 21.333 21.333h213.333c12.8 0 21.333-8.533 21.333-21.333v-174.933zM256 25.6c0-12.8-8.533-25.6-21.333-25.6h-213.333c-12.8 0-21.333 12.8-21.333 25.6v174.933c0 12.8 8.533 21.333 21.333 21.333h213.333c12.8 0 21.333-8.533 21.333-21.333v-174.933zM550.4 448v64h-76.8v-64h-379.733v-192h72.533v106.667h307.2v-106.667h76.8v106.667h302.933v-106.667h76.8v192l-379.733-0zM550.4 448z"  horiz-adv-x="1024" />

    
    <glyph glyph-name="xiaoshuai" unicode="&#58888;" d="M882.267-128l15.877 37.357H37.357V770.142L0 754.267 59.781 896l59.781-141.733-37.357 15.875v-815.937h815.939l-15.877 37.357L1024-68.218 882.267-128zM156.95 14.001h149.492v179.39H156.95V14z m373.729 0v343.83H381.187v-343.83H530.68z m104.644 0h149.49V507.323h-149.49V14z m-483.41 395.583l10.076-43.71C324.442 403.363 568.98 512 737.412 695.8l56-41.692 21.3 182.095-168.34-72.593 54.907-40.899C539.963 548.536 307.04 445.374 151.914 409.584z"  horiz-adv-x="1024" />

    
    <glyph glyph-name="zhiwei" unicode="&#58898;" d="M400.56832 872.70912h246.64576l-53.12-223.88736H448L400.56832 865.11616V872.70912zM523.89888-100.61312L284.83072 100.5056 448 605.18912h147.9936l161.26976-510.37696-233.36448-195.42528z"  horiz-adv-x="1024" />

    
    <glyph glyph-name="QR_code" unicode="&#58931;" d="M102.39744 348.78808c0-8.80618 4.915077-15.974001 10.956526-15.974h797.266468c6.041449 0 10.956526 7.167821 10.956527 16.025199V402.137147c0 8.857379-4.915077 16.025199-10.956527 16.025199H113.353966c-6.041449 0-10.956526-7.167821-10.956526-16.025199v-53.297868zM976.0012 896h-191.9952a47.973201 47.973201 0 1 1 0-95.9976h143.970801v-143.970801a48.024399 48.024399 0 0 1 95.9976 0V848.026799A47.973201 47.973201 0 0 1 976.0012 896m0-735.9816a48.024399 48.024399 0 0 1-48.024399-47.973201v-144.022h-143.970801a48.024399 48.024399 0 1 1 0-95.9976h191.9952c26.520937 0 47.973201 21.503462 47.973201 48.0244v191.9952a47.973201 47.973201 0 0 1-47.973201 47.973201m-735.9816-191.995201H95.9976v144.022a47.973201 47.973201 0 1 1-95.9976 0v-191.9952c0-26.520937 21.503462-48.024399 47.973201-48.0244h191.9952a47.973201 47.973201 0 1 1 0 95.9976m-191.9952 639.984001c26.572136 0 48.024399 21.503462 48.024399 48.024399V800.0024h144.022a47.973201 47.973201 0 0 1 0 95.9976H48.024399A47.973201 47.973201 0 0 1 0 847.975601v-191.995201c0-26.469738 21.503462-47.973201 47.973201-47.9732"  horiz-adv-x="1024" />

    
    <glyph glyph-name="xiaoxi1" unicode="&#58883;" d="M368.64 358.4h212.992c14.336 0 26.624 11.776 26.624 26.624s-11.776 26.624-26.624 26.624H368.64c-14.848 0-26.624-11.776-26.624-26.624s11.776-26.624 26.624-26.624zM517.12 815.104c-238.08 0-431.616-167.424-431.616-373.76 0-100.864 45.568-195.072 128-265.728 11.264-9.216 27.648-8.192 37.376 3.072 9.216 11.264 8.192 27.648-3.072 37.376-70.656 60.416-109.568 140.8-109.568 225.28 0 177.152 169.984 321.024 378.88 321.024s378.88-143.872 378.88-321.024-169.984-321.024-378.88-321.024c-7.168 0-14.336-3.072-19.456-8.704-8.704-9.728-13.312-14.336-16.384-17.92-2.048-2.048-3.584-4.096-5.12-5.632l-2.56-2.56c-7.168-7.168-14.336-13.824-31.744-29.184-25.088-18.944-60.416-34.304-98.304-43.52 30.72 43.008 39.936 80.384 30.208 117.76-2.048 6.656-6.144 12.288-12.288 15.872-6.144 4.096-13.312 5.12-19.968 3.072-6.656-2.048-12.288-6.144-15.872-12.288-4.096-6.144-5.12-13.312-3.072-19.968 6.144-22.016-2.048-47.104-25.6-78.848-3.584-4.608-7.68-9.728-12.288-15.36-1.024-1.024-2.56-2.56-4.096-4.608-4.608-5.12-6.656-7.68-7.168-8.704-4.096-4.608-6.656-8.704-9.216-12.288s-3.584-6.656-4.608-10.752c-2.56-10.24 0.512-20.48 8.192-27.648 5.12-4.096 11.776-6.656 17.92-6.656 53.248 0 132.608 19.968 189.44 64 19.456 17.408 27.136 24.576 35.328 32.768l3.072 3.072c3.584 3.584 5.632 6.144 10.24 11.264l4.608 5.12c112.128 2.56 217.088 42.496 295.936 111.616 79.872 70.144 123.904 163.328 123.904 262.144 0 205.312-193.024 372.736-431.104 372.736zM368.64 486.4h298.496c14.336 0 26.624 11.776 26.624 26.624s-11.776 26.624-26.624 26.624H368.64c-14.848 0-26.624-11.776-26.624-26.624s11.776-26.624 26.624-26.624z"  horiz-adv-x="1024" />

    
    <glyph glyph-name="qunzu" unicode="&#58906;" d="M341.296 408.115c-62.59 28.119-104.402 90.17-104.402 163.23 0 99.281 80.485 179.763 179.77 179.763s179.769-80.482 179.769-179.762c0-72.85-41.693-134.802-103.995-163.038 154.102-33.543 270.8-167.271 278.44-329.532l-708.162-0.464c9.787 160.141 125.862 295.634 278.58 329.803zM566.12 730.305c41.408-40.134 67.144-96.343 67.144-158.564 0-57.474-21.96-109.818-57.946-149.103l0.005-0.001c112.047-48.194 196.746-147.83 224.358-269.175v0.005l160.123 0.105C953.014 297.78 849.3 416.632 712.34 446.443c55.369 25.095 92.425 80.156 92.425 144.9 0 88.235-71.53 159.764-159.772 159.764-29.399 0-56.945-7.94-80.608-21.794"  horiz-adv-x="1024" />

    
    <glyph glyph-name="gongnengfuben" unicode="&#59036;" d="M130.704854 686.210973c10.145058 18.928095 26.044166 25.336038 47.238884 25.133423 75.156724-0.718361 150.324704-0.200568 225.488591-0.314155 36.502355-0.055259 48.493457-11.884678 48.536436-47.743373 0.091074-75.163887 0.085958-150.327774 0.002047-225.490638-0.039909-35.82288-12.139481-47.916313-48.428989-47.989991-75.163887-0.151449-150.330844 0.341784-225.488591-0.292665-21.101597-0.178055-37.003775 6.488785-47.347355 25.12933l-0.001023 271.568069zM130.704854 296.071392c12.675694 18.458397 30.249955 23.62507 52.270481 23.327288 73.878614-0.9967 147.779741-0.310062 221.671658-0.409323 34.866089-0.047072 47.270607-12.406564 47.317679-47.170322 0.102331-75.803453 0.113587-151.606907-0.005117-227.409337-0.054235-34.675754-12.379958-46.65253-47.51927-46.669926-74.529437-0.036839-149.07013 0.713244-223.581147-0.462534-21.76163-0.342808-38.0762 5.616928-50.154284 23.399943V296.071392zM683.759899-2.270461c-38.864146 0-77.728292-0.093121-116.592439 0.029676-30.775934 0.097214-44.093241 12.115945-44.259016 42.10291-0.437975 79.000262-0.462534 158.006663 0.024559 237.005902 0.178055 28.948309 13.761422 41.950438 42.63503 42.051745 78.364789 0.273223 156.731624 0.25992 235.096413 0.013303 29.918403-0.094144 43.147706-13.177114 43.277665-43.337017 0.336668-78.363765 0.37453-156.731624-0.021489-235.095389-0.154519-30.538527-13.094226-42.652426-43.567262-42.7435-38.864146-0.115634-77.729316-0.027629-116.593461-0.02763zM895.719358 552.343079c-0.222057-12.95608-5.40408-22.198581-13.31833-30.117948-56.778144-56.80782-113.397676-113.775276-170.479743-170.276104-19.007913-18.814508-38.016849-18.824741-57.015551-0.01842-57.081043 56.501852-113.895003 113.27795-170.366156 170.387645-18.6078 18.818601-18.168802 37.960567 0.710175 56.985876a31114.089543 31114.089543 0 0 0 169.026648 169.025624c19.750833 19.60143 38.536688 19.574824 58.303894-0.046048C769.131265 692.151265 825.324078 635.659647 881.704157 579.355293c7.936763-7.925507 13.219069-17.019629 14.015201-27.012214z"  horiz-adv-x="1024" />

    
    <glyph glyph-name="gonggao" unicode="&#59009;" d="M464.258-32.83c-30.464 27.47-62.711 56.138-96.758 86.001-34.04 29.858-65.695 57.333-94.964 82.415a12701.118 12701.118 0 0 1-102.129 85.105c-6.57-0.596-13.14-0.898-19.706-0.898-5.376-0.594-11.05-0.892-17.026-0.892h-15.226c-16.13 0-29.265 4.925-39.418 14.78C68.878 243.537 63.8 255.33 63.8 269.065V494.817h0.897l-0.897 0.897c0 16.723 5.227 30.458 15.677 41.21 10.45 10.748 23.443 16.123 38.973 16.123h51.062c54.947 46.586 104.82 88.39 149.613 125.418a5920.72 5920.72 0 0 0 56.438 47.03c18.517 15.233 35.24 29.116 50.17 41.657 14.934 12.541 27.476 22.995 37.628 31.355 10.153 8.362 16.422 13.438 18.814 15.23 17.918 13.142 32.4 19.112 43.446 17.918 11.05-1.195 19.712-6.57 25.985-16.128 6.268-9.552 10.597-21.198 12.987-34.936 2.388-13.736 3.583-26.277 3.583-37.623v-725.629c0-11.347-2.087-23.442-6.268-36.283-4.183-12.839-10.604-22.992-19.26-30.459-8.662-7.467-19.563-10.597-32.705-9.404-13.135 1.192-28.366 9.85-45.684 25.977z m289.366 532.126c12.541-17.316 22.545-34.787 30.013-52.407 7.462-17.615 11.198-38.97 11.198-64.052 0-23.888-3.884-45.387-11.65-64.502-7.764-19.11-17.614-36.428-29.561-51.957-4.777-6.57-9.856-12.391-15.233-17.47-5.37-5.073-12.243-7.611-20.603-7.611-10.752 0-19.859 3.88-27.322 11.643-7.467 7.765-11.199 17.02-11.199 27.773 0 4.776 0.892 9.552 2.686 14.334h-0.898a117.552 117.552 0 0 0 10.753 18.81 391.726 391.726 0 0 1 12.095 18.367c3.879 6.269 7.164 13.438 9.85 21.498 2.69 8.063 4.033 17.77 4.033 29.116 0 10.751-1.342 20.156-4.034 28.218-2.685 8.062-5.971 15.38-9.85 21.95a292.016 292.016 0 0 1-12.094 18.813c-4.183 5.97-7.468 12.243-9.856 18.809-1.794 4.181-2.686 8.958-2.686 14.334 0 10.751 3.732 20.008 11.199 27.77 7.462 7.766 16.569 11.646 27.322 11.646 8.36 0 15.233-2.538 20.603-7.611 5.378-5.078 10.457-10.9 15.234-17.471z m50.17-402.23c-7.17-5.376-15.53-8.062-25.088-8.062-11.942 0-22.243 4.331-30.904 12.988-8.661 8.66-12.992 18.962-12.992 30.908 0 13.14 5.079 24.186 15.232 33.144 0.595 0.599 1.193 1.045 1.79 1.347 0.6 0.297 1.194 0.744 1.793 1.342l0.897 0.898c16.723 11.346 32.253 24.784 46.582 40.313a296.978 296.978 0 0 1 37.629 50.614c10.752 18.214 19.11 37.622 25.082 58.229 5.975 20.603 8.959 41.953 8.959 64.05 0 44.793-11.346 85.705-34.041 122.733s-51.067 67.486-85.108 91.373c-12.541 8.958-18.814 20.904-18.814 35.833 0 11.946 4.33 22.247 12.992 30.908 8.66 8.661 18.963 12.988 30.904 12.988 10.154 0 19.112-3.281 26.877-9.85 22.1-15.53 42.707-33.595 61.819-54.201 19.111-20.603 35.533-43 49.273-67.188 13.736-24.186 24.484-50.015 32.247-77.49 7.765-27.47 11.65-55.841 11.65-85.104 0-29.864-3.885-58.526-11.65-86.001-7.764-27.47-18.66-53.45-32.698-77.936-14.033-24.487-30.607-47.031-49.718-67.639-19.115-20.603-40.02-38.67-62.713-54.197z"  horiz-adv-x="1024" />

    
    <glyph glyph-name="yinhangqia" unicode="&#58916;" d="M931.84 790.186667H92.16C40.96 790.186667 0 749.226667 0 698.026667v-102.4h1024v102.4c0 47.786667-40.96 92.16-92.16 92.16zM0 69.973333c0-51.2 40.96-92.16 92.16-92.16h839.68c51.2 0 92.16 40.96 92.16 92.16V455.68H0v-385.706667z m836.266667 136.533334h75.093333v-85.333334h-75.093333v85.333334z m-95.573334 0h75.093334v-85.333334h-75.093334v85.333334z m-95.573333 0h75.093333v-85.333334h-75.093333v85.333334z"  horiz-adv-x="1024" />

    
    <glyph glyph-name="zhangmuguanli" unicode="&#58920;" d="M198.4 656h230.4v-284.8H198.4V656zM707.2 86.4H198.4c-9.6 0-19.2 9.6-19.2 19.2s9.6 19.2 19.2 19.2h508.8c9.6 0 19.2-9.6 19.2-19.2s-9.6-19.2-19.2-19.2z m0 140.8H198.4c-9.6 0-19.2 9.6-19.2 19.2s9.6 19.2 19.2 19.2h508.8c9.6 0 19.2-9.6 19.2-19.2 0-12.8-9.6-19.2-19.2-19.2z m0 265.6H528c-9.6 0-19.2 9.6-19.2 19.2s9.6 19.2 19.2 19.2h179.2c9.6 0 19.2-9.6 19.2-19.2s-9.6-19.2-19.2-19.2z m0 128h-192c-9.6 0-19.2 9.6-19.2 19.2s9.6 19.2 19.2 19.2h192c9.6 0 19.2-9.6 19.2-19.2s-9.6-19.2-19.2-19.2zM752-128H176c-73.6 0-112 38.4-112 108.8V691.2c0 70.4 38.4 112 112 112h576c70.4 0 112-38.4 112-112v-710.4c0-70.4-41.6-108.8-112-108.8zM176 764.8c-51.2 0-73.6-22.4-73.6-73.6v-710.4c0-51.2 22.4-73.6 73.6-73.6h576c51.2 0 73.6 22.4 73.6 73.6V691.2c0 51.2-22.4 73.6-73.6 73.6H176z m777.6-633.6c-9.6 0-19.2 9.6-19.2 19.2V784c0 51.2-22.4 73.6-73.6 73.6h-576c-9.6 0-19.2 9.6-19.2 19.2S275.2 896 284.8 896h576c70.4 0 112-38.4 112-112v-636.8c0-9.6-9.6-16-19.2-16z"  horiz-adv-x="1024" />

    
    <glyph glyph-name="gongzuo" unicode="&#58927;" d="M972.361411 373.214353c-20.575618-14.470573-45.975101-27.52796-75.91397-38.969547-80.158644-30.630624-193.195094-49.593512-315.449486-53.92005-2.845815-6.639211-6.853082-12.55699-12.045337-17.74106-11.497868-11.483542-26.0237-17.228383-43.583634-17.228383-16.305361 0-30.258141 5.929036-41.85834 17.770736-5.067412 5.173836-9.027607 10.923794-11.881608 17.250895-0.844228 0.029676-1.684362 0.051165-2.529613 0.082888-170.358993 6.40692-311.064618 39.681768-386.039194 91.295286a244.431012 244.431012 0 0 0-4.387937 3.099595l-0.511653 0.399089v-340.352665c0-44.774763 36.428677-81.20344 81.20344-81.20344h732.306568c44.775786 0 81.20344 36.428677 81.20344 81.20344V373.607302l-0.512676-0.392949zM117.877199 422.328957c64.672952-44.522006 196.833971-74.619488 353.530802-80.512708 1.302669-0.049119 2.602268-0.082888 3.903914-0.127914a58.793034 58.793034 0 0 0 8.670473 10.649548c11.916401 11.604292 26.127054 17.406438 42.644239 17.406438 16.717753 0 30.829146-5.92699 42.327014-17.769712a61.501726 61.501726 0 0 0 8.134261-10.393721c116.166743 3.89368 222.773759 21.487384 297.44339 50.019207 34.478256 13.175067 60.822251 28.151154 78.295204 44.511773 9.376555 8.778944 15.841803 17.625426 19.534915 26.714432l0.5137 1.231037V611.994668c0 44.776809-36.427654 81.20344-81.20344 81.20344h-126.132722v98.448196c0 27.973098-20.594037 51.225685-47.41387 55.400774h-385.213385c-26.821879-4.175089-47.413869-27.426653-47.41387-55.400774v-98.448196h-126.132722c-44.774763 0-81.20344-36.428677-81.20344-81.20344v-139.733485l0.511653-2.016937c4.043083-16.678868 17.176195-32.750915 39.203884-47.915289z m259.261789 324.767711c0 8.010441 6.494924 14.503319 14.504342 14.503319h267.751137c8.009418 0 14.503319-6.493901 14.503318-14.503319v-53.89856h-296.758797v53.89856z"  horiz-adv-x="1024" />

    
    <glyph glyph-name="shenpi" unicode="&#58956;" d="M681.236 720.01H206.181c-11.506 0-20.845-9.338-20.845-20.845 0-11.505 9.338-20.845 20.845-20.845h475.082c11.506 0 20.845 9.339 20.845 20.845 0 11.506-9.366 20.845-20.872 20.845z m20.844-170.23c0 11.507-9.338 20.845-20.845 20.845H206.181c-11.506 0-20.845-9.337-20.845-20.844 0-11.505 9.338-20.845 20.845-20.845h475.082c11.48 0.001 20.817 9.34 20.817 20.845zM206.153 421.242c-11.506 0-20.845-9.337-20.845-20.845 0-11.505 9.338-20.843 20.845-20.843h304.882c11.506 0 20.845 9.338 20.845 20.843 0 11.506-9.338 20.845-20.845 20.845H206.153z m238.848-149.383H206.153c-11.506 0-20.845-9.338-20.845-20.845 0-11.505 9.338-20.845 20.845-20.845h238.848c11.506 0 20.845 9.34 20.845 20.845 0 11.506-9.339 20.845-20.845 20.845zM911.107 59.08h-53.363L753.608 204.795c42.856 15.091 73.817 55.557 73.817 103.499 0 60.753-49.387 110.168-110.143 110.168-60.753 0-110.14-49.415-110.14-110.168 0-47.942 30.988-88.408 73.816-103.5L576.793 59.08h-53.334c-26.82 0-48.637-21.817-48.637-48.637v-78.347c0-26.82 21.817-48.637 48.637-48.637h387.62c26.82 0 48.637 21.817 48.637 48.637v78.347c0.028 26.82-21.79 48.637-48.61 48.637zM648.829 308.294c0 37.74 30.683 68.48 68.452 68.48 37.772 0 68.454-30.711 68.454-68.48 0-37.52-30.349-68.036-67.813-68.398h-1.28c-37.435 0.362-67.813 30.85-67.813 68.398z m62.062-133.376l12.257 0.779 83.348-116.617H628.07l82.82 115.838z m207.164-242.85c0-3.78-3.17-6.948-6.948-6.948H523.486c-3.78 0-6.949 3.168-6.949 6.948v78.346c0 3.78 3.17 6.949 6.949 6.949h387.647c3.782 0 6.949-3.17 6.949-6.949v-78.346h-0.027z m-810.037 87.435V835.904c0 3.78 3.17 6.949 6.948 6.949H778.51c3.779 0 6.948-3.17 6.948-6.949v-392.121a152.09 152.09 0 0 0 41.689-30.99V835.904c0 26.82-21.817 48.637-48.637 48.637H114.966c-26.82 0-48.636-21.817-48.636-48.637v-816.4c0-26.82 21.817-48.637 48.636-48.637h318.168v39.577c0 0.722 0.194 1.39 0.222 2.111h-318.39c-3.752 0-6.948 3.168-6.948 6.948z"  horiz-adv-x="1024" />

    
    <glyph glyph-name="kehu" unicode="&#58895;" d="M648.533 413.867c51.2 38.4 85.334 102.4 85.334 170.666 0 119.467-98.134 217.6-217.6 217.6-119.467 0-217.6-98.133-217.6-217.6 0-68.266 34.133-132.266 85.333-170.666C247.467 358.4 153.6 230.4 153.6 76.8v-72.533c0-21.334 17.067-38.4 38.4-38.4h657.067c21.333 0 38.4 17.066 38.4 38.4V76.8C878.933 226.133 780.8 358.4 648.533 413.867z m-281.6 170.666c0 81.067 64 145.067 145.067 145.067 81.067 0 145.067-64 145.067-145.067 0-81.066-64-145.066-145.067-145.066-81.067 0-145.067 64-145.067 145.066zM806.4 38.4H217.6v38.4c0 162.133 132.267 290.133 294.4 290.133 162.133 0 294.4-132.266 294.4-290.133v-38.4zM238.933 379.733h8.534c17.066 4.267 25.6 17.067 25.6 34.134 0 17.066-8.534 29.866-25.6 34.133-38.4 17.067-64 55.467-64 98.133 0 51.2 29.866 89.6 76.8 106.667 8.533 25.6 21.333 46.933 34.133 64 0 4.267 4.267 8.533 8.533 12.8H294.4c-102.4 0-183.467-81.067-183.467-183.467 0-46.933 17.067-89.6 46.934-123.733C64 375.467 0 277.333 0 166.4v-55.467c0-21.333 17.067-38.4 38.4-38.4h64c0 25.6 4.267 51.2 8.533 72.534h-38.4V166.4c0 102.4 68.267 187.733 166.4 213.333z m627.2 46.934C896 460.8 913.067 503.467 913.067 550.4c0 98.133-81.067 183.467-183.467 183.467h-8.533c4.266-8.534 8.533-12.8 8.533-17.067 12.8-21.333 25.6-42.667 34.133-64 42.667-12.8 76.8-55.467 76.8-102.4 0-42.667-25.6-81.067-64-98.133-12.8-4.267-25.6-17.067-25.6-34.134 0-17.066 12.8-29.866 25.6-34.133h8.534c98.133-25.6 166.4-110.933 166.4-209.067V153.6h-38.4c4.266-25.6 8.533-46.933 8.533-72.533h64c21.333 0 38.4 17.066 38.4 38.4v55.466c0 102.4-64 200.534-157.867 251.734z m0 0"  horiz-adv-x="1024" />

    
    <glyph glyph-name="caigou" unicode="&#59037;" d="M420.100096 495.120384h602.290176c17.42336 0 32.536576 12.036096 36.436992 29.017088l24.802304 107.993088c4.573184 19.91168-10.553344 38.90688-30.983168 38.90688H414.349312l-37.17632 100.037632c-5.336064 15.598592-19.995648 17.240064-36.473856 17.240064H230.336512c-16.966656 0-31.428608-13.7216-30.825472-30.678016 0.720896-20.27008 17.67424-27.961344 38.5024-27.961344h75.067392l48.905216-125.545472 24.348672-83.668992c4.369408-15.015936 18.127872-25.340928 33.765376-25.340928zM432.530432 436.482048c-14.843904 0-25.744384-13.937664-22.166528-28.345344l43.962368-177.051648c3.91168-15.756288 19.063808-26.034176 35.1488-23.845888l498.477056 67.820544c16.416768 2.233344 29.55264 14.741504 32.587776 31.029248l17.093632 91.746304c3.743744 20.09088-11.6736 38.646784-32.110592 38.646784H432.530432zM478.691328 172.00128c-45.11744-4.468736-81.609728-40.961024-86.07744-86.07744-6.038528-60.969984 44.780544-111.788032 105.749504-105.750528 45.11744 4.468736 81.609728 40.961024 86.07744 86.078464 6.038528 60.96896-44.780544 111.787008-105.749504 105.749504zM999.169024 172.00128c-45.11744-4.468736-81.609728-40.961024-86.07744-86.07744-6.038528-60.969984 44.780544-111.788032 105.750528-105.750528 45.116416 4.468736 81.609728 40.961024 86.07744 86.078464 6.037504 60.96896-44.781568 111.787008-105.750528 105.749504z"  horiz-adv-x="1310" />

    
    <glyph glyph-name="jietiao" unicode="&#58922;" d="M189.248917 895.274908c0.938354 0 2.132622 0.213262 3.582806 0.725092h654.032656c34.975008 0 64.917028-12.241253 89.826058-36.723759 24.397201-24.013329 36.638454-53.059647 36.638453-87.138953 0-28.363879-8.615795-53.528824-25.847384-75.622793a127.445518 127.445518 0 0 0-67.561479-43.206931V652.582473a6.952349 6.952349 0 0 1-3.625459-2.857715v0.639787a8.18927 8.18927 0 0 1-1.40753-4.307897v-646.141953a28.491836 28.491836 0 0 0-8.615795-20.8997l-102.067311-98.655115c-5.288904-5.288904-11.729424-7.933356-19.406864-7.933356s-14.160613 2.644452-19.406865 7.933356l-112.85838 108.806398a6.995002 6.995002 0 0 1-10.023326 0l-112.85838-108.806398c-5.288904-5.288904-11.729424-7.933356-19.406865-7.933356s-14.160613 2.644452-19.406864 7.933356L337.978007-10.833722a6.995002 6.995002 0 0 1-10.065978 0L219.404199-115.28957c-5.288904-5.288904-11.729424-7.976008-19.406865-7.976008s-14.160613 2.687104-19.406864 7.976008L73.532822-12.36921a26.145951 26.145951 0 0 0-8.615794 20.174608V772.094635c0 34.079307 12.1986 63.168277 36.638454 87.138954 23.5015 24.013329 51.737421 36.254582 84.793068 36.723759 0.981006-0.426524 1.91936-0.682439 2.900367-0.68244zM120.962346 772.094635v-749.19027a8.35988 8.35988 0 0 1 2.175275-5.032989l71.869377-69.13962a6.867044 6.867044 0 0 1 10.065978 0l108.50783 105.18094a26.359214 26.359214 0 0 0 19.406865 7.933355c7.677441 0 14.160613-2.644452 19.406864-7.933355l112.858381-108.806398a6.995002 6.995002 0 0 1 10.065978 0l112.85838 108.806398c5.246251 5.288904 11.729424 7.933356 19.406865 7.933355s14.117961-2.644452 19.406864-7.933355l112.858381-108.806398a6.995002 6.995002 0 0 1 10.065978 0l66.793735 64.874375a6.867044 6.867044 0 0 1 2.175275 5.032989V640.981006a6.867044 6.867044 0 0 1-2.175275 5.032989 6.995002 6.995002 0 0 1-5.075641 2.175275H189.974009a25.122293 25.122293 0 0 0-19.406865 8.658447 25.335555 25.335555 0 0 0-8.658447 19.406865c0 8.18927 2.857714 14.928357 8.615795 20.174608a26.316561 26.316561 0 0 0 19.449517 7.976008c19.620127 0 36.425192 6.696435 50.32989 20.174609 13.904698 13.435521 20.857048 29.302233 20.857047 47.557481s-6.995002 34.036654-20.8997 47.514828a71.101633 71.101633 0 0 1-50.287237 19.449517h-1.450184c-18.212596 0-34.036654-6.483172-47.429523-19.449517a65.13029 65.13029 0 0 1-20.131956-47.557481z m181.827391 56.173276c9.596801-17.743419 14.373875-36.510497 14.373875-56.173276s-4.777074-38.643119-14.373875-56.898367a6.013995 6.013995 0 0 1-0.682439-5.032989v-0.725092a6.653782 6.653782 0 0 1 2.857714-3.582805 7.762746 7.762746 0 0 1 4.307897-1.450184h537.59147a68.670443 68.670443 0 0 1 49.562145 20.174609c13.904698 13.435521 20.857048 29.302233 20.857048 47.557481s-6.952349 34.079307-20.857048 47.55748a70.120626 70.120626 0 0 1-49.562145 19.449517H309.272909a7.762746 7.762746 0 0 1-4.307897-1.450183 6.824392 6.824392 0 0 1-2.857714-4.35055 6.0993 6.0993 0 0 1 0.682439-5.075641z m329.916694-670.667111h-31.648117v22.392536h-159.52016v-22.349884h-31.648117v197.395535h222.816394v-197.438187z m-31.648117 50.457847v45.339554h-159.52016v-45.339554h159.52016z m0 72.765078v46.064646h-159.52016v-46.064646h159.52016z m-38.771076 136.87171V476.769077H479.584139v-59.073642h82.703099zM448.021326 562.457847h31.605465v-57.623458h82.660447V562.457847h31.605464v-57.623458h62.528491v-28.107964H593.892702v-59.073643h77.627458v-28.107964H378.284572v28.107964H448.021326V476.769077H394.79107v28.065312H448.021326V562.457847z m-91.318893 1.450184l32.330556-10.79107a1363.94002 1363.94002 0 0 0-39.53882-96.522492v-298.951017h-31.605465V397.520826c-12.923692-22.093969-26.615128-42.268577-40.946351-60.481173-4.777074 14.373875-9.340886 26.871043-13.648784 37.448851 42.14062 60.95035 73.276908 124.118627 93.408864 189.419527z"  horiz-adv-x="1024" />

    
    <glyph glyph-name="wode" unicode="&#58889;" d="M900.362971 191.642713c-20.79867 38.678228-51.327711 75.532011-88.303124 106.79083-43.908303 36.975413-94.992754 65.071861-150.090985 83.194679 79.059271 48.043711 131.724908 132.941204 131.724908 229.393515 0 149.482836-126.373203 271.112484-281.572633 271.112483-155.32106 0-281.572633-121.629647-281.572633-271.112483 0-97.668607 54.003563-183.539138 134.644019-231.21796-4.743556-1.702815-9.487112-3.40563-14.230669-5.230075-48.043711-18.609336-94.262977-45.854377-133.670982-78.694381C138.59649 229.956052 91.525817 146.518114 91.525817 72.567288c0-60.206675 46.340896-109.588312 134.035871-142.793206 74.558974-28.218078 176.241359-43.786673 286.437819-43.786673s212.000475 15.568595 286.43782 43.786673c87.694976 33.204894 134.035871 82.58653 134.035871 142.793206 0.12163 38.678228-11.068298 79.910678-32.110227 119.075425zM766.813618-11.965317c-66.896306-23.717781-157.388764-36.732153-254.814111-36.732153S324.081702-35.683098 257.185396-11.965317C193.451461 10.657798 156.962567 41.430099 156.962567 72.567288c0 53.152156 38.799857 119.197054 101.074237 172.227581 72.004751 61.301342 162.13232 94.992754 253.962703 94.992754 93.16831 0 183.052619-31.258819 253.111296-88.059864 63.855565-51.81423 102.047274-118.832165 102.047274-179.2821 0-31.01556-36.610524-61.787861-100.344459-84.410976zM295.863624 610.900107c0 113.480461 96.938829 205.675733 216.135883 205.675733 119.197054 0 216.135883-92.316902 216.135884-205.675733 0-113.480461-96.938829-205.675733-216.135884-205.675734-119.197054 0-216.135883 92.316902-216.135883 205.675734z"  horiz-adv-x="1024" />

    
    <glyph glyph-name="gouwuche" unicode="&#58880;" d="M892.326912 677.935104c17.024 0 29.943808-2.248704 39.371776-6.700032 9.339904-4.473856 16.062464-9.842688 20.076544-16.54272 4.017152-6.700032 5.807104-13.39904 5.369856-21.016576-0.437248-7.595008-1.352704-13.857792-3.098624-19.20512l-11.655168-33.08544-19.20512-54.974464-21.475328-59.449344c-6.677504-19.663872-12.04736-35.311616-15.627264-46.485504-8.075264-23.678976-17.896448-40.22272-29.94176-49.606656-12.090368-9.38496-26.84416-13.857792-44.260352-13.857792l-30.860288 0-58.969088 0-76.864512 0L560.684032 357.01145599999995 335.894528 357.01145599999995l13.836288-80.44544 456.344576 0c29.070336 0 43.824128-12.068864 43.824128-36.665344 0-12.04736-3.142656-22.347776-8.99072-30.83776-5.325824-8.487936-16.93696-12.96384-33.958912-12.96384l-43.342848 0-84.023296 0L575.0016 196.09907199999998 469.065728 196.09907199999998l-86.728704 0-50.0224 0c-12.091392 0-22.347776 2.685952-30.42304 8.05376-8.031232 5.368832-14.753792 12.526592-20.1216 21.016576-5.80608 8.489984-9.821184 17.87392-13.400064 28.152832-3.098624 10.278912-5.805056 19.663872-7.595008 28.611584l-4.932608 25.905152-10.258432 51.418112-12.96384 68.834304-14.316544 76.428288L178.977792 705.650688l-67.961856 0c-8.90368 0-16.497664 2.226176-22.347776 6.700032-6.198272 4.473856-11.173888 9.821184-15.188992 16.084992-3.579904 6.262784-6.678528 12.96384-8.031232 20.122624-1.308672 7.136256-2.226176 13.857792-2.226176 19.662848 0 12.069888 4.016128 21.890048 12.091392 29.50656 8.467456 7.595008 19.20512 11.609088 33.041408 11.609088l20.1216 0 18.332672 0 22.347776 0 30.816256 0c12.090368 0 21.910528-1.788928 29.068288-5.367808 7.158784-3.579904 12.96384-8.031232 17.461248-13.400064 4.015104-5.367808 7.113728-11.173888 8.90368-16.978944l4.452352-15.21152c1.396736-4.91008 2.270208-11.609088 3.579904-20.099072l3.579904-26.386432 5.41184-33.957888L892.326912 677.935104zM739.90656 170.191872c11.610112 0 22.785024-2.246656 33.08544-6.263808 10.73664-4.015104 19.642368-9.84064 27.281408-17.436672 7.593984-7.595008 13.836288-16.084992 18.28864-26.36288 4.49536-10.279936 6.720512-21.016576 6.720512-32.191488s-2.226176-21.890048-6.720512-32.169984c-4.453376-10.277888-10.694656-18.767872-18.28864-26.384384-7.63904-7.596032-16.543744-13.401088-27.281408-17.874944-10.300416-4.473856-21.475328-6.700032-33.08544-6.700032-11.173888 0-22.347776 2.226176-32.606208 6.700032-10.257408 4.473856-19.249152 10.278912-26.406912 17.874944-7.596032 7.616512-13.838336 16.106496-18.28864 26.384384-4.496384 10.279936-6.72256 20.996096-6.72256 32.169984s2.2272 21.910528 6.72256 32.191488c4.451328 10.277888 10.692608 18.767872 18.28864 26.36288 7.15776 7.596032 16.149504 13.421568 26.406912 17.436672C717.558784 167.94521599999996 728.732672 170.191872 739.90656 170.191872zM363.131904 171.98080000000004c11.609088 0 22.347776-2.246656 32.648192-6.262784 10.258432-4.036608 19.20512-9.842688 27.236352-17.436672 7.595008-7.595008 13.88032-16.084992 17.896448-26.363904 4.451328-10.278912 6.721536-21.016576 6.721536-32.191488s-2.270208-21.889024-6.721536-32.16896c-4.016128-10.279936-10.302464-18.7904-17.896448-26.385408-8.031232-7.596032-16.978944-13.400064-27.236352-17.87392-10.300416-4.473856-21.039104-6.700032-32.648192-6.700032-12.048384 0-23.222272 2.226176-33.086464 6.700032-9.821184 4.473856-18.768896 10.277888-26.800128 17.87392-7.595008 7.595008-13.88032 16.105472-17.896448 26.385408-4.451328 10.279936-6.720512 20.995072-6.720512 32.16896s2.269184 21.911552 6.720512 32.191488c4.016128 10.278912 10.302464 18.768896 17.896448 26.363904 8.031232 7.593984 16.978944 13.400064 26.800128 17.436672C339.909632 169.73414400000001 351.08352 171.98080000000004 363.131904 171.98080000000004z"  horiz-adv-x="1024" />

    
    <glyph glyph-name="yingfuguanli" unicode="&#59282;" d="M1009.152 458.24l-406.528 356.352c-24.576 19.968-56.32 32.256-90.624 32.256-33.792 0-65.024-11.776-90.112-31.744L15.36 459.264c-8.704-10.24-14.336-23.552-14.336-37.888 0-26.624 17.92-48.64 42.496-55.808 0 0 5.632-2.048 14.336-2.048h119.808v-371.2c0-53.248 40.448-92.672 93.184-92.672H752.64c53.248 0 93.184 39.424 93.184 92.672V363.52h121.344c30.72 1.536 55.296 26.624 55.296 57.856 0.512 13.824-5.12 26.624-13.312 36.864z m-364.544-283.648h-86.016v-55.808c0-26.624-19.968-46.592-46.592-46.592-26.624 0-46.592 19.968-46.592 46.592v55.808H381.952c-21.504 0-33.792 17.92-33.792 38.912 0 21.504 12.8 35.328 33.792 35.328h83.456v46.592H381.952c-21.504 0-33.792 16.384-33.792 37.888s12.8 36.352 33.792 36.352h80.896L378.368 454.656c-15.36 15.36-15.36 39.936 0 55.296 15.36 15.36 39.936 15.36 54.784 0l78.336-78.336 78.336 78.848c15.36 15.36 39.936 15.36 54.784 0 15.36-15.36 15.36-39.936 0-55.296l-84.48-84.992h81.92c21.504 0 33.792-14.848 33.792-36.352 0-21.504-12.8-37.888-33.792-37.888h-83.456v-46.592H640c21.504 0 36.352-10.752 36.352-38.912-0.512-21.504-10.752-35.84-31.744-35.84z"  horiz-adv-x="1024" />

    
    <glyph glyph-name="canyindingdan" unicode="&#58881;" d="M78.779733 333.3632c14.446933 19.4304 32.170667 37.828267 52.881067 55.210667 67.882667 59.136 150.613333 88.635733 248.337067 88.635733 25.489067 0 49.8944-1.902933 73.326933-5.845333l1.365333-13.141334 20.309334-183.261866H78.779733c-12.672 13.866667-12.672 33.288533 0 58.402133M0 174.916267c0 22.3488 2.730667 43.665067 8.174933 63.965866h471.048534l13.627733-136.686933H9.540267c-6.4 21.3248-9.540267 45.568-9.540267 72.721067M380.142933-126.208c-97.732267 0-180.599467 29.073067-248.3456 87.338667-20.846933 17.373867-38.434133 35.925333-52.881066 55.1936-17.169067 24.2432-17.169067 43.665067 0 58.129066h416.6656l17.578666-158.446933 1.365334-20.3008c-40.891733-14.600533-85.725867-21.905067-134.391467-21.905067M952.234667 522.939733h-21.248L863.3856-123.392H550.4512l-6.289067 53.589333-15.0784 146.0992-2.5088 25.4464-13.824 126.037334-3.780266 33.536-17.467734 168.977066-10.052266 92.501334H461.4656V575.061333h490.513067v-52.113066zM837.333333 732.398933V605.013333h-46.250666V761.890133L973.815467 896l46.250666-29.482667z"  horiz-adv-x="1024" />

    
    <glyph glyph-name="yingshoukuan" unicode="&#58940;" d="M1079.510326 292.244837l0.523907-1.190697-435.31907-383.547535h-0.714419a153.028465 153.028465 0 0 0-193.202604-0.523907h-1.190698L21.003907 285.553116c-1.071628 0.952558-2.238512 1.833674-3.238698 2.857675l-2.476651 2.214697 0.190512 0.619163a62.368744 62.368744 0 0 0 29.838883 101.066419l0.714419 2.452837h14.693209c0.428651 0 0.809674 0.11907 1.190698 0.11907 0.452465 0 0.833488-0.11907 1.238326-0.11907H185.748837V791.599628C185.748837 849.253209 231.947907 896 289.00614 896h516.096c57.010605 0 103.233488-46.746791 103.233488-104.400372v-396.835721h122.64186c0.404837 0 0.809674 0.11907 1.214512 0.11907 0.428651 0 0.809674-0.11907 1.190698-0.11907h1.476465l0.071442-0.142884a62.202047 62.202047 0 0 0 59.225302-62.392558c0-15.264744-5.643907-29.100651-14.645581-39.983628z m-398.240745 165.268837c22.813767 0 41.293395 18.693953 41.293396 41.769675s-18.479628 41.769674-41.293396 41.769674H598.682791v4.238884l90.564465 91.588465a42.388837 42.388837 0 0 1 0 59.463442 41.221953 41.221953 0 0 1-58.820465 0l-84.063256-85.015814-83.753675 84.682419a41.221953 41.221953 0 0 1-58.796651 0 42.388837 42.388837 0 0 1 0-59.463442l91.636093-92.660093v-2.857675h-82.610604c-22.789953 0-41.293395-18.67014-41.293396-41.74586 0-23.075721 18.503442-41.769674 41.293396-41.769675h82.610604v-41.769674h-82.610604c-22.789953 0-41.293395-18.67014-41.293396-41.74586 0-23.075721 18.503442-41.769674 41.293396-41.769675h82.610604v-52.200186c0-28.814884 23.099535-52.200186 51.604838-52.200186 28.505302 0 51.604837 23.337674 51.604837 52.200186v52.200186h82.58679c22.813767 0 41.293395 18.693953 41.293396 41.769675s-18.479628 41.74586-41.293396 41.74586H598.682791v41.769674h82.58679z"  horiz-adv-x="1095" />

    


  </font>
</defs>
</svg>
